:SAMPLES-PER-SECOND 24
:FULLY-SPECIFIED
:DEGREES
159
root  4.90175 39.6292 18.8049 5.2735 -35.2038 -0.344421
RightUpLeg  -12.0735 5.14348 -12.5755
RightLeg  28.549 -17.3936 -10.194
RightFoot  -4.10058 -0.167769 2.12077
RightToes  -2.08645e-008 3.77894e-005 6.81332e-007
Spine  1.75693 1.18348 -0.389312
Spine1  8.00916 1.82292 -2.81723
HEad  -37.9503 17.4799 -13.3551
LeftShoulder1  6.76277 -12.5449 -36.0963
LeftArm  3.80902 16.0138 -23.4017
LeftForeArm  140.002 -77.3403 -130.717
LeftHand  -0.47857 -2.17654 7.5404
RightShoulder  3.83145 6.56403 32.1706
RightArm  10.1361 -23.4616 30.7297
RightForeArm  106.804 80.7303 88.5701
RightHand  -0.122102 9.11433 -1.36804
LeftUpLeg  -9.18773 -6.01219 0.144039
LeftLeg  13.0281 5.82727 3.5868
LeftFoot  -9.32852 0.129254 -4.16935
LeftToes  1.24767e-006 1.47042e-008 1.32732e-009
160
root  5.0616 39.7982 18.8602 5.99225 -35.0549 -0.733536
RightUpLeg  -13.63 1.18954 -10.1516
RightLeg  30.2251 -15.0435 -9.4903
RightFoot  -6.74979 -0.0883317 1.24236
RightToes  -2.08645e-008 3.77894e-005 6.81332e-007
Spine  2.00551 0.810784 -2.13219
Spine1  7.58187 0.965687 -0.883753
HEad  -37.3263 18.3074 -13.556
LeftShoulder1  6.45239 -12.2352 -34.9798
LeftArm  1.67329 17.8253 -23.5916
LeftForeArm  148.175 -74.7906 -140.909
LeftHand  -0.435531 -1.94267 7.08487
RightShoulder  3.78719 6.54132 31.8131
RightArm  10.6546 -24.1209 29.8524
RightForeArm  119.322 80.2516 105.014
RightHand  -0.159929 8.78691 -1.69305
LeftUpLeg  -8.6987 -3.57999 0.303239
LeftLeg  10.619 3.37675 2.89448
LeftFoot  -8.40964 0.164736 -4.45414
LeftToes  1.24767e-006 1.47042e-008 1.32732e-009
161
root  5.1436 39.9006 18.9218 6.70819 -35.0867 -1.06442
RightUpLeg  -15.089 -4.35233 -6.98363
RightLeg  31.2312 -12.691 -8.4063
RightFoot  -9.10869 -0.101111 2.05032
RightToes  -2.08645e-008 3.77894e-005 6.81332e-007
Spine  2.0026 0.447343 -3.00144
Spine1  7.35607 0.442192 -0.217187
HEad  -36.0675 18.8387 -13.0346
LeftShoulder1  6.2915 -12.0659 -34.3986
LeftArm  0.044362 18.1452 -23.1366
LeftForeArm  148.036 -74.2235 -142.33
LeftHand  -0.426996 -1.97555 6.92129
RightShoulder  3.80022 6.54934 31.9136
RightArm  10.0176 -24.2028 29.7037
RightForeArm  120.565 80.2909 105.179
RightHand  -0.246373 8.59966 -2.42573
LeftUpLeg  -8.35559 -1.82116 0.637238
LeftLeg  8.72216 2.00038 2.17292
LeftFoot  -8.22043 0.19407 -5.31526
LeftToes  1.24767e-006 1.47042e-008 1.32732e-009
162
root  5.19513 39.9458 18.9805 6.95209 -35.446 -1.12276
RightUpLeg  -16.1696 -11.022 -3.37296
RightLeg  31.5393 -14.2682 -9.49101
RightFoot  -10.2241 -0.070113 0.0887971
RightToes  -2.08645e-008 3.77894e-005 6.81332e-007
Spine  2.29713 0.295767 -3.29423
Spine1  7.1665 0.30537 -0.161227
HEad  -34.894 19.205 -12.4634
LeftShoulder1  6.30044 -12.0609 -34.4685
LeftArm  -0.817886 16.9949 -22.4829
LeftForeArm  141.601 -75.8201 -136.632
LeftHand  -0.446076 -1.97515 7.22243
RightShoulder  3.89757 6.63848 32.5438
RightArm  9.15254 -24.1612 29.592
RightForeArm  110.507 80.6165 94.4909
RightHand  -0.137857 8.77476 -1.5162
LeftUpLeg  -7.91072 -1.15384 0.792545
LeftLeg  7.6057 1.80883 1.69227
LeftFoot  -8.51813 0.201409 -6.10175
LeftToes  1.24767e-006 1.47042e-008 1.32732e-009
163
root  5.1965 39.9294 19.0291 6.7674 -36.5253 -0.734467
RightUpLeg  -16.8166 -17.9383 0.151145
RightLeg  30.2066 -17.0624 -10.6724
RightFoot  -11.1303 -0.0719617 -1.31769
RightToes  -2.08645e-008 3.77894e-005 6.81332e-007
Spine  2.44579 0.502736 -3.83137
Spine1  7.52764 0.50136 0.0960197
HEad  -34.3367 19.6532 -12.4932
LeftShoulder1  6.62181 -12.3928 -35.6235
LeftArm  -1.00836 15.2114 -21.2816
LeftForeArm  132.889 -77.6709 -127.565
LeftHand  -0.490476 -1.84466 8.0554
RightShoulder  3.96089 6.68666 32.9839
RightArm  8.34773 -23.8985 29.7449
RightForeArm  92.816 80.3801 77.3613
RightHand  -0.155154 8.83473 -1.65399
LeftUpLeg  -7.66733 -0.88159 0.667421
LeftLeg  7.53674 2.40668 1.32021
LeftFoot  -8.9445 0.19468 -6.74199
LeftToes  1.24767e-006 1.47042e-008 1.32732e-009
